<svg width="36" height="36" viewBox="0 0 36 36" fill="none" xmlns="http://www.w3.org/2000/svg">
<path d="M19.185 31.4999L4.5 16.8149V19.8149C4.5 20.6099 4.815 21.3749 5.385 21.9299L17.07 33.6149C18.24 34.7849 20.145 34.7849 21.315 33.6149L30.63 24.2999C31.8 23.1299 31.8 21.2249 30.63 20.0549L19.185 31.4999Z" fill="black"/>
<path d="M17.07 26.115C17.655 26.7 18.42 27 19.185 27C19.95 27 20.715 26.7 21.3 26.115L30.615 16.8C31.785 15.63 31.785 13.725 30.615 12.555L18.93 0.87C18.375 0.315 17.61 0 16.815 0H7.5C5.85 0 4.5 1.35 4.5 3V12.315C4.5 13.11 4.815 13.875 5.385 14.43L17.07 26.115ZM7.5 3H16.815L28.5 14.685L19.185 24L7.5 12.315V3Z" fill="black"/>
<path d="M10.875 8.25C11.9105 8.25 12.75 7.41053 12.75 6.375C12.75 5.33947 11.9105 4.5 10.875 4.5C9.83947 4.5 9 5.33947 9 6.375C9 7.41053 9.83947 8.25 10.875 8.25Z" fill="black"/>
</svg>
