<svg width="40" height="40" viewBox="0 0 40 40" fill="none" xmlns="http://www.w3.org/2000/svg">
<path d="M32.05 25.4333L27.8167 24.9499C27.3189 24.8915 26.8144 24.9466 26.3409 25.1111C25.8675 25.2757 25.4376 25.5454 25.0833 25.8999L22.0167 28.9666C17.2853 26.5603 13.4396 22.7146 11.0333 17.9833L14.1167 14.8999C14.8333 14.1833 15.1833 13.1833 15.0667 12.1666L14.5833 7.9666C14.4888 7.15356 14.0987 6.40366 13.4871 5.85968C12.8755 5.3157 12.0852 5.01563 11.2667 5.0166H8.38334C6.50001 5.0166 4.93334 6.58327 5.05001 8.4666C5.93334 22.6999 17.3167 34.0666 31.5333 34.9499C33.4167 35.0666 34.9833 33.4999 34.9833 31.6166V28.7333C35 27.0499 33.7333 25.6333 32.05 25.4333Z" fill="white"/>
</svg>
