<svg width="40" height="40" viewBox="0 0 40 40" fill="none" xmlns="http://www.w3.org/2000/svg">
<path d="M33.3333 29.9998H30V15.4165L20 21.6665L10 15.4165V29.9998H6.66668V9.99984H8.66668L20 17.0832L31.3333 9.99984H33.3333M33.3333 6.6665H6.66668C4.81668 6.6665 3.33334 8.14984 3.33334 9.99984V29.9998C3.33334 30.8839 3.68453 31.7317 4.30965 32.3569C4.93478 32.982 5.78262 33.3332 6.66668 33.3332H33.3333C34.2174 33.3332 35.0652 32.982 35.6904 32.3569C36.3155 31.7317 36.6667 30.8839 36.6667 29.9998V9.99984C36.6667 9.11578 36.3155 8.26794 35.6904 7.64281C35.0652 7.01769 34.2174 6.6665 33.3333 6.6665Z" fill="white"/>
</svg>
