<svg width="40" height="40" viewBox="0 0 40 40" fill="none" xmlns="http://www.w3.org/2000/svg">
<path d="M20 3.75C16.7861 3.75 13.6443 4.70305 10.972 6.48862C8.29969 8.27419 6.21689 10.8121 4.98696 13.7814C3.75704 16.7507 3.43524 20.018 4.06225 23.1702C4.68926 26.3224 6.23692 29.2179 8.50952 31.4905C10.7821 33.7631 13.6776 35.3107 16.8298 35.9378C19.982 36.5648 23.2493 36.243 26.2186 35.013C29.1879 33.7831 31.7258 31.7003 33.5114 29.028C35.297 26.3557 36.25 23.2139 36.25 20C36.2455 15.6916 34.5319 11.561 31.4855 8.51454C28.439 5.46806 24.3084 3.75455 20 3.75ZM20 33.75C17.2805 33.75 14.6221 32.9436 12.3609 31.4327C10.0997 29.9218 8.33737 27.7744 7.29666 25.2619C6.25596 22.7494 5.98366 19.9847 6.51421 17.3175C7.04476 14.6503 8.35432 12.2003 10.2773 10.2773C12.2003 8.35431 14.6503 7.04475 17.3175 6.5142C19.9848 5.98366 22.7494 6.25595 25.2619 7.29666C27.7744 8.33736 29.9218 10.0997 31.4327 12.3609C32.9436 14.6221 33.75 17.2805 33.75 20C33.7459 23.6455 32.2959 27.1404 29.7182 29.7182C27.1404 32.2959 23.6455 33.7459 20 33.75ZM15 20C15 21.0494 15.3302 22.0722 15.9438 22.9235C16.5574 23.7749 17.4233 24.4116 18.4189 24.7434C19.4144 25.0753 20.4892 25.0855 21.4908 24.7726C22.4925 24.4597 23.3704 23.8395 24 23C24.1991 22.7348 24.4954 22.5595 24.8238 22.5128C25.1521 22.4661 25.4856 22.5517 25.7508 22.7508C26.016 22.9499 26.1913 23.2462 26.238 23.5746C26.2847 23.9029 26.1991 24.2363 26 24.5016C25.0553 25.7605 23.7385 26.6903 22.236 27.1593C20.7336 27.6283 19.1217 27.6127 17.6285 27.1148C16.1354 26.6169 14.8368 25.6618 13.9166 24.3849C12.9964 23.108 12.5012 21.574 12.5012 20C12.5012 18.426 12.9964 16.892 13.9166 15.6151C14.8368 14.3382 16.1354 13.3831 17.6285 12.8852C19.1217 12.3873 20.7336 12.3717 22.236 12.8407C23.7385 13.3097 25.0553 14.2395 26 15.4984C26.0986 15.6298 26.1704 15.7792 26.2112 15.9383C26.252 16.0973 26.2611 16.2629 26.238 16.4254C26.2149 16.588 26.1599 16.7444 26.0763 16.8858C25.9927 17.0271 25.8821 17.1506 25.7508 17.2492C25.6195 17.3478 25.47 17.4196 25.311 17.4604C25.1519 17.5012 24.9864 17.5104 24.8238 17.4872C24.6612 17.4641 24.5048 17.4091 24.3634 17.3255C24.2221 17.2419 24.0986 17.1313 24 17C23.3704 16.1605 22.4925 15.5403 21.4908 15.2274C20.4892 14.9145 19.4144 14.9247 18.4189 15.2566C17.4233 15.5884 16.5574 16.2251 15.9438 17.0764C15.3302 17.9278 15 18.9506 15 20Z" fill="white"/>
</svg>
